<?xml version="1.0" encoding="UTF-8" standalone="no"?>
<!DOCTYPE svg PUBLIC "-//W3C//DTD SVG 1.1//EN"
 "http://www.w3.org/Graphics/SVG/1.1/DTD/svg11.dtd">
<!-- Generated by graphviz version 12.2.1 (20241206.2353)
 -->
<!-- Title: lpc/src_lpc/board_lpc.h Pages: 1 -->
<svg width="212pt" height="83pt"
 viewBox="0.00 0.00 211.88 82.50" xmlns="http://www.w3.org/2000/svg" xmlns:xlink="http://www.w3.org/1999/xlink">
<g id="graph0" class="graph" transform="scale(1 1) rotate(0) translate(4 78.5)">
<title>lpc/src_lpc/board_lpc.h</title>
<!-- Node1 -->
<g id="Node000001" class="node">
<title>Node1</title>
<g id="a_Node000001"><a xlink:title="LPC2105 board pin definitions and configurations.">
<polygon fill="#999999" stroke="#666666" points="146.75,-74.5 30.25,-74.5 30.25,-55.25 146.75,-55.25 146.75,-74.5"/>
<text text-anchor="middle" x="88.5" y="-61" font-family="Helvetica,sans-Serif" font-size="10.00">lpc/src_lpc/board_lpc.h</text>
</a>
</g>
</g>
<!-- Node2 -->
<g id="Node000002" class="node">
<title>Node2</title>
<g id="a_Node000002"><a xlink:title=" ">
<polygon fill="#e0e0e0" stroke="#999999" points="67,-19.25 0,-19.25 0,0 67,0 67,-19.25"/>
<text text-anchor="middle" x="33.5" y="-5.75" font-family="Helvetica,sans-Serif" font-size="10.00">LPC210x.H</text>
</a>
</g>
</g>
<!-- Node1&#45;&gt;Node2 -->
<g id="edge1_Node000001_Node000002" class="edge">
<title>Node1&#45;&gt;Node2</title>
<g id="a_edge1_Node000001_Node000002"><a xlink:title=" ">
<path fill="none" stroke="#63b8ff" d="M79.42,-55.08C71.66,-47.57 60.29,-36.56 50.8,-27.38"/>
<polygon fill="#63b8ff" stroke="#63b8ff" points="53.49,-25.1 43.87,-20.66 48.62,-30.13 53.49,-25.1"/>
</a>
</g>
</g>
<!-- Node3 -->
<g id="Node000003" class="node">
<title>Node3</title>
<g id="a_Node000003"><a xlink:href="reserva__gpio__lpc2105_8h.html" target="_top" xlink:title="GPIO Pin Reservations for LPC2105.">
<polygon fill="white" stroke="#666666" points="203.88,-19.25 85.12,-19.25 85.12,0 203.88,0 203.88,-19.25"/>
<text text-anchor="middle" x="144.5" y="-5.75" font-family="Helvetica,sans-Serif" font-size="10.00">reserva_gpio_lpc2105.h</text>
</a>
</g>
</g>
<!-- Node1&#45;&gt;Node3 -->
<g id="edge2_Node000001_Node000003" class="edge">
<title>Node1&#45;&gt;Node3</title>
<g id="a_edge2_Node000001_Node000003"><a xlink:title=" ">
<path fill="none" stroke="#63b8ff" d="M98,-54.84C105.93,-47.3 117.45,-36.35 127.04,-27.23"/>
<polygon fill="#63b8ff" stroke="#63b8ff" points="129.21,-29.99 134.04,-20.57 124.39,-24.92 129.21,-29.99"/>
</a>
</g>
</g>
</g>
</svg>
