<?xml version="1.0" encoding="UTF-8" standalone="no"?>
<!DOCTYPE svg PUBLIC "-//W3C//DTD SVG 1.1//EN"
 "http://www.w3.org/Graphics/SVG/1.1/DTD/svg11.dtd">
<!-- Generated by graphviz version 12.2.1 (20241206.2353)
 -->
<!-- Title: Device Drivers Pages: 1 -->
<svg width="261pt" height="335pt"
 viewBox="0.00 0.00 261.25 335.25" xmlns="http://www.w3.org/2000/svg" xmlns:xlink="http://www.w3.org/1999/xlink">

<svg id="main" version="1.1" xmlns="http://www.w3.org/2000/svg" xmlns:xlink="http://www.w3.org/1999/xlink" xml:space="preserve">

<style type="text/css"><![CDATA[
.node, .edge {opacity: 0.7;}
.node.selected, .edge.selected {opacity: 1;}
.edge:hover path { stroke: red; }
.edge:hover polygon { stroke: red; fill: red; }
]]></style>
<script type="application/ecmascript" xlink:href="svg.min.js"/>
<svg id="graph" class="graph">
<g id="graph0" class="graph" transform="scale(1 1) rotate(0) translate(4 331.25)">
<title>Device Drivers</title>
<!-- Node1 -->
<g id="Node000001" class="node">
<title>Node1</title>
<g id="a_Node000001"><a xlink:title="Hardware&#45;independent device drivers.">
<polygon fill="#999999" stroke="#666666" points="81.25,-173.25 0,-173.25 0,-154 81.25,-154 81.25,-173.25"/>
<text text-anchor="middle" x="40.62" y="-159.75" font-family="Helvetica,sans-Serif" font-size="10.00">Device Drivers</text>
</a>
</g>
</g>
<!-- Node2 -->
<g id="Node000002" class="node">
<title>Node2</title>
<g id="a_Node000002"><a xlink:href="group___d_r_v___b_u_t_t_o_n_s.html" target="_top" xlink:title=" ">
<polygon fill="white" stroke="#666666" points="222.12,-327.25 148.38,-327.25 148.38,-308 222.12,-308 222.12,-327.25"/>
<text text-anchor="middle" x="185.25" y="-313.75" font-family="Helvetica,sans-Serif" font-size="10.00">Button Driver</text>
</a>
</g>
</g>
<!-- Node1&#45;&gt;Node2 -->
<g id="edge1" class="edge">
<title>Node1&#45;&gt;Node2</title>
<path fill="none" stroke="black" d="M47.5,-184.47C57.06,-214.51 78.88,-269.67 117.25,-299.62 126.08,-306.52 137.34,-310.78 148.09,-313.41"/>
<polygon fill="black" stroke="black" points="50.9,-183.63 44.67,-175.06 44.2,-185.64 50.9,-183.63"/>
</g>
<!-- Node4 -->
<g id="Node000004" class="node">
<title>Node4</title>
<g id="a_Node000004"><a xlink:href="group___d_r_v___l_e_d_s.html" target="_top" xlink:title=" ">
<polygon fill="white" stroke="#666666" points="217.62,-290.25 152.88,-290.25 152.88,-271 217.62,-271 217.62,-290.25"/>
<text text-anchor="middle" x="185.25" y="-276.75" font-family="Helvetica,sans-Serif" font-size="10.00">LED Driver</text>
</a>
</g>
</g>
<!-- Node1&#45;&gt;Node4 -->
<g id="edge3" class="edge">
<title>Node1&#45;&gt;Node4</title>
<path fill="none" stroke="black" d="M51.66,-183.64C64.02,-206.22 87.13,-242.43 117.25,-262.62 127.66,-269.6 140.66,-273.88 152.44,-276.5"/>
<polygon fill="black" stroke="black" points="54.79,-182.07 47.04,-174.84 48.59,-185.32 54.79,-182.07"/>
</g>
<!-- Node5 -->
<g id="Node000005" class="node">
<title>Node5</title>
<g id="a_Node000005"><a xlink:href="group___d_r_v___m_o_n_i_t_o_r.html" target="_top" xlink:title=" ">
<polygon fill="white" stroke="#666666" points="239.75,-253.25 130.75,-253.25 130.75,-234 239.75,-234 239.75,-253.25"/>
<text text-anchor="middle" x="185.25" y="-239.75" font-family="Helvetica,sans-Serif" font-size="10.00">Debug Monitor Driver</text>
</a>
</g>
</g>
<!-- Node1&#45;&gt;Node5 -->
<g id="edge4" class="edge">
<title>Node1&#45;&gt;Node5</title>
<path fill="none" stroke="black" d="M58.89,-181.46C73.29,-195.37 94.99,-214.19 117.25,-225.62 123.36,-228.76 130.07,-231.39 136.81,-233.59"/>
<polygon fill="black" stroke="black" points="61.56,-179.17 52,-174.61 56.62,-184.14 61.56,-179.17"/>
</g>
<!-- Node3 -->
<g id="Node000003" class="node">
<title>Node3</title>
<g id="a_Node000003"><a xlink:href="group___d_r_v___p_o_w_e_r.html" target="_top" xlink:title=" ">
<polygon fill="white" stroke="#666666" points="251.38,-216.25 119.12,-216.25 119.12,-197 251.38,-197 251.38,-216.25"/>
<text text-anchor="middle" x="185.25" y="-202.75" font-family="Helvetica,sans-Serif" font-size="10.00">Power Management Driver</text>
</a>
</g>
</g>
<!-- Node1&#45;&gt;Node3 -->
<g id="edge2" class="edge">
<title>Node1&#45;&gt;Node3</title>
<path fill="none" stroke="black" d="M83.16,-177.06C94.22,-180.57 106.17,-184.3 117.25,-187.62 127.21,-190.62 138.04,-193.74 148.03,-196.57"/>
<polygon fill="black" stroke="black" points="84.5,-173.81 73.91,-174.11 82.37,-180.48 84.5,-173.81"/>
</g>
<!-- Node6 -->
<g id="Node000006" class="node">
<title>Node6</title>
<g id="a_Node000006"><a xlink:href="group___d_r_v___r_n_g.html" target="_top" xlink:title=" ">
<polygon fill="white" stroke="#666666" points="253.25,-178.88 117.25,-178.88 117.25,-148.38 253.25,-148.38 253.25,-178.88"/>
<text text-anchor="start" x="125.25" y="-165.38" font-family="Helvetica,sans-Serif" font-size="10.00">Random Number Generator</text>
<text text-anchor="middle" x="185.25" y="-154.12" font-family="Helvetica,sans-Serif" font-size="10.00"> Driver</text>
</a>
</g>
</g>
<!-- Node1&#45;&gt;Node6 -->
<g id="edge5" class="edge">
<title>Node1&#45;&gt;Node6</title>
<path fill="none" stroke="black" d="M93.14,-163.62C100.86,-163.62 108.92,-163.62 116.91,-163.62"/>
<polygon fill="black" stroke="black" points="93.25,-160.13 83.25,-163.63 93.25,-167.13 93.25,-160.13"/>
</g>
<!-- Node7 -->
<g id="Node000007" class="node">
<title>Node7</title>
<g id="a_Node000007"><a xlink:href="group___d_r_v___s_c.html" target="_top" xlink:title=" ">
<polygon fill="white" stroke="#666666" points="241.25,-130.25 129.25,-130.25 129.25,-111 241.25,-111 241.25,-130.25"/>
<text text-anchor="middle" x="185.25" y="-116.75" font-family="Helvetica,sans-Serif" font-size="10.00">Critical Section Driver</text>
</a>
</g>
</g>
<!-- Node1&#45;&gt;Node7 -->
<g id="edge6" class="edge">
<title>Node1&#45;&gt;Node7</title>
<path fill="none" stroke="black" d="M83.16,-150.19C94.22,-146.68 106.17,-142.95 117.25,-139.62 127.21,-136.63 138.04,-133.51 148.03,-130.68"/>
<polygon fill="black" stroke="black" points="82.37,-146.77 73.91,-153.14 84.5,-153.44 82.37,-146.77"/>
</g>
<!-- Node8 -->
<g id="Node000008" class="node">
<title>Node8</title>
<g id="a_Node000008"><a xlink:href="group___d_r_v___t_i_m_e_r.html" target="_top" xlink:title=" ">
<polygon fill="white" stroke="#666666" points="220.25,-93.25 150.25,-93.25 150.25,-74 220.25,-74 220.25,-93.25"/>
<text text-anchor="middle" x="185.25" y="-79.75" font-family="Helvetica,sans-Serif" font-size="10.00">Timer Driver</text>
</a>
</g>
</g>
<!-- Node1&#45;&gt;Node8 -->
<g id="edge7" class="edge">
<title>Node1&#45;&gt;Node8</title>
<path fill="none" stroke="black" d="M58.89,-145.79C73.29,-131.88 94.99,-113.06 117.25,-101.62 127.32,-96.45 139.03,-92.65 149.81,-89.91"/>
<polygon fill="black" stroke="black" points="56.62,-143.11 52,-152.64 61.56,-148.08 56.62,-143.11"/>
</g>
<!-- Node9 -->
<g id="Node000009" class="node">
<title>Node9</title>
<g id="a_Node000009"><a xlink:href="group___d_r_v___u_a_r_t.html" target="_top" xlink:title=" ">
<polygon fill="white" stroke="#666666" points="221.75,-56.25 148.75,-56.25 148.75,-37 221.75,-37 221.75,-56.25"/>
<text text-anchor="middle" x="185.25" y="-42.75" font-family="Helvetica,sans-Serif" font-size="10.00">UART Driver</text>
</a>
</g>
</g>
<!-- Node1&#45;&gt;Node9 -->
<g id="edge8" class="edge">
<title>Node1&#45;&gt;Node9</title>
<path fill="none" stroke="black" d="M51.66,-143.61C64.02,-121.03 87.13,-84.82 117.25,-64.62 126.45,-58.46 137.7,-54.4 148.32,-51.73"/>
<polygon fill="black" stroke="black" points="48.59,-141.93 47.04,-152.41 54.79,-145.18 48.59,-141.93"/>
</g>
<!-- Node10 -->
<g id="Node000010" class="node">
<title>Node10</title>
<g id="a_Node000010"><a xlink:href="group___d_r_v___w_d_t.html" target="_top" xlink:title=" ">
<polygon fill="white" stroke="#666666" points="243.5,-19.25 127,-19.25 127,0 243.5,0 243.5,-19.25"/>
<text text-anchor="middle" x="185.25" y="-5.75" font-family="Helvetica,sans-Serif" font-size="10.00">Watchdog Timer Driver</text>
</a>
</g>
</g>
<!-- Node1&#45;&gt;Node10 -->
<g id="edge9" class="edge">
<title>Node1&#45;&gt;Node10</title>
<path fill="none" stroke="black" d="M47.5,-142.78C57.06,-112.74 78.88,-57.58 117.25,-27.62 121.33,-24.44 125.93,-21.81 130.76,-19.65"/>
<polygon fill="black" stroke="black" points="44.2,-141.61 44.67,-152.19 50.9,-143.62 44.2,-141.61"/>
</g>
</g>
</svg>
</svg>

<style type='text/css'>
<![CDATA[
[data-mouse-over-selected='false'] { opacity: 0.7; }
[data-mouse-over-selected='true']  { opacity: 1.0; }
]]>
</style>
<script type="application/ecmascript"><![CDATA[
document.addEventListener('DOMContentLoaded', (event) => {
  highlightEdges();
  highlightAdjacentNodes();
});
]]></script>
</svg>
